<?xml version="1.0" encoding="UTF-8"?>
<svg id="Ebene_2" data-name="Ebene 2" xmlns="http://www.w3.org/2000/svg" xmlns:xlink="http://www.w3.org/1999/xlink" viewBox="0 0 235.37 61.34">
  <defs>
    <style>
      .cls-1 {
        clip-path: url(#clippath-1);
      }

      .cls-1, .cls-2, .cls-3, .cls-4, .cls-5 {
        fill: #1d1d1b;
      }

      .cls-2 {
        clip-path: url(#clippath-3);
      }

      .cls-6 {
        clip-path: url(#clippath-4);
      }

      .cls-4 {
        clip-path: url(#clippath-2);
      }

      .cls-5 {
        clip-path: url(#clippath);
      }
    </style>
    <clipPath id="clippath">
      <path class="cls-3" d="M10.01.02c-.57.09-1.25.39-1.73.75-1.45,1.1-2.58,3.45-3.05,6.36-.18,1.1-.3,2.63-.3,3.8,0,1.38.16,3.14.39,4.36.05.27.08.51.06.53-.02.02-.23.19-.47.38-.82.65-1.76,1.66-2.4,2.58-1.24,1.76-2.04,3.76-2.38,5.92-.13.85-.17,2.58-.06,3.44.23,1.97.82,3.64,1.84,5.16l.33.49-.1.16c-.68,1.14-1.26,2.8-1.53,4.38-.21,1.26-.24,1.59-.24,3.28s.02,2.03.22,3.21c.24,1.4.73,2.89,1.27,3.88.18.32.62.99.67,1.03.02,0-.03.17-.12.36-.63,1.37-1.16,3.2-1.39,4.74-.16,1.06-.18,1.4-.18,2.51,0,1.42.08,2.11.38,3.24l.04.17h3.74l-.12-.23c-.75-1.4-.82-3.99-.17-6.57.3-1.2.63-2.07,1.26-3.28l.38-.73v-.45c0-.42,0-.47-.14-.74-.1-.21-.24-.39-.49-.63-.42-.41-.73-.84-.97-1.37-1.07-2.33-1.28-5.79-.53-8.74.31-1.23.83-2.33,1.38-2.92.37-.41.56-.87.56-1.34s-.17-.9-.57-1.32c-1.13-1.2-1.82-2.67-2.07-4.38-.35-2.43.29-5.08,1.74-7.18,1.43-2.06,3.43-3.38,5.67-3.73.5-.08,1.44-.07,1.96.03.57.1.93.07,1.3-.1.45-.21.68-.48.95-1.09.24-.55.42-.84.91-1.46.59-.74,1.16-1.24,2.08-1.85,1.05-.68,2.24-1.18,3.42-1.42.43-.09.63-.1,1.44-.1s1.01.01,1.44.1c1.74.35,3.47,1.25,4.85,2.53.3.27,1.01,1.16,1.23,1.52.09.14.24.45.34.68.27.61.49.88.95,1.09.35.17.72.21,1.27.11.87-.15,1.54-.14,2.39.04,2.9.58,5.42,2.97,6.53,6.17.97,2.8.7,5.74-.75,7.98-.24.38-.49.68-.84,1.06-.76.82-.76,1.83,0,2.67,1.25,1.37,2.03,4.72,1.79,7.69-.16,1.95-.66,3.7-1.35,4.69-.12.17-.38.47-.57.65-.25.24-.39.42-.49.63-.14.27-.14.32-.14.74v.45l.38.73c.63,1.21.96,2.08,1.26,3.28.64,2.55.58,5.09-.15,6.53-.06.12-.11.24-.11.25s.83.02,1.85.02h1.85l.05-.19c.03-.1.07-.25.09-.34.05-.19.14-.76.22-1.3.07-.55.07-2.57,0-3.18-.28-2.22-.75-3.97-1.51-5.64-.08-.19-.14-.35-.12-.36.02-.01.14-.19.27-.38.95-1.44,1.54-3.25,1.83-5.64.08-.66.08-3.49,0-4.12-.21-1.63-.46-2.74-.88-3.86-.17-.47-.64-1.45-.83-1.77l-.1-.16.33-.49c1.02-1.53,1.61-3.19,1.84-5.16.1-.86.07-2.58-.06-3.44-.34-2.17-1.14-4.16-2.38-5.92-.65-.92-1.58-1.93-2.4-2.58-.24-.19-.45-.37-.47-.38-.02-.02,0-.26.06-.53.53-2.75.51-6.19-.04-8.87-.48-2.34-1.35-4.2-2.48-5.27-.9-.85-1.81-1.22-2.91-1.15-2.52.15-4.55,3.05-5.36,7.62-.13.74-.24,1.6-.24,1.84,0,.09-.02.17-.04.17s-.19-.09-.38-.2c-1.95-1.15-4.11-1.77-6.22-1.77s-4.27.62-6.22,1.77c-.18.11-.35.2-.38.2s-.04-.07-.04-.17c0-.24-.12-1.13-.24-1.84C15.38,3.52,13.71.81,11.49.12c-.31-.09-1.17-.15-1.48-.1ZM10.75,3.57c.63.5,1.33,1.92,1.73,3.51.07.29.15.62.17.74.02.12.07.38.1.59.17.92.25,1.92.26,3.14v1.2s-.3.44-.3.44l-.3.45h-.7c-.82,0-1.64.1-2.42.31-.28.07-.55.14-.6.15-.08.02-.1,0-.14-.37-.26-1.94-.24-4.09.04-5.88.31-1.99,1.05-3.8,1.76-4.33.17-.13.2-.12.4.03ZM35.62,3.54c.43.32.91,1.16,1.26,2.25.71,2.16.91,5.13.54,7.96-.05.36-.06.38-.14.37-.05-.01-.32-.08-.6-.15-.78-.21-1.6-.31-2.42-.31h-.7l-.3-.45-.3-.44v-1.2c.01-1.69.17-3.01.55-4.48.4-1.58,1.1-3,1.72-3.5.2-.16.23-.16.4-.03Z"/>
    </clipPath>
    <clipPath id="clippath-1">
      <path class="cls-5" d="M22.31,25.49c-.95.09-1.2.13-1.66.22-.74.15-1.72.49-2.41.83-2.38,1.16-4.02,3.11-4.52,5.35-.1.44-.11.59-.11,1.34s.01.9.11,1.33c.67,2.94,3.37,5.1,6.87,5.5.76.08,4.04.08,4.8,0,2.81-.32,5.23-1.84,6.31-3.98.29-.57.43-.94.56-1.52.1-.42.11-.58.11-1.33s-.01-.9-.11-1.34c-.73-3.26-3.9-5.83-7.78-6.32-.51-.06-1.83-.11-2.16-.08ZM23.94,27.86c1.3.14,2.6.6,3.65,1.3.56.37,1.36,1.16,1.7,1.68.42.64.66,1.29.77,2.08.05.36.02.64-.11,1.22-.21.87-.84,1.78-1.7,2.42-.4.29-1.23.72-1.74.88-.97.31-1.6.37-3.86.35-1.47-.01-1.74-.03-2.16-.1-1.44-.27-2.59-.85-3.42-1.72-.67-.71-.98-1.35-1.14-2.39-.07-.48.07-1.29.35-1.96.34-.82,1.23-1.85,2.12-2.44,1.02-.68,2.36-1.16,3.6-1.3.48-.05,1.48-.05,1.96,0Z"/>
    </clipPath>
    <clipPath id="clippath-2">
      <path class="cls-1" d="M21.32,31.05c-.33.18-.56.63-.49.97.08.36.4.73.89,1.03.27.16.28.18.3.34,0,.1-.03.37-.07.62-.05.24-.09.49-.09.56,0,.19.18.49.36.64.16.13.19.14.65.15.41.01.5,0,.67-.07.43-.21.54-.59.38-1.33-.13-.62-.1-.71.22-.9.34-.2.71-.55.82-.79.21-.46.02-.98-.44-1.22-.11-.06-.25-.08-.46-.08-.32,0-.52.07-.9.31l-.21.14-.14-.08c-.55-.33-.65-.37-.99-.36-.24,0-.37.02-.49.08Z"/>
    </clipPath>
    <clipPath id="clippath-3">
      <path class="cls-4" d="M10.73,25.98c-.77.24-1.35.81-1.64,1.62-.14.38-.21.99-.15,1.32.14.78.79,1.49,1.51,1.69.92.24,1.6.08,2.21-.52.35-.34.55-.65.74-1.13.14-.34.15-.41.15-.89v-.52s-.18-.38-.18-.38c-.29-.59-.82-1.03-1.43-1.2-.34-.09-.9-.08-1.2.02Z"/>
    </clipPath>
    <clipPath id="clippath-4">
      <path class="cls-2" d="M34.02,25.97c-.6.16-1.13.61-1.41,1.19l-.18.38v.52c0,.49.01.55.15.89.19.49.38.79.74,1.13.61.6,1.29.76,2.21.52.53-.14,1.06-.58,1.31-1.1.22-.44.27-.76.2-1.26-.16-1.15-.83-1.98-1.83-2.27-.29-.09-.86-.09-1.18,0Z"/>
    </clipPath>
  </defs>
  <g id="Ebene_1-2" data-name="Ebene 1">
    <g>
      <path class="cls-3" d="M10.01.02c-.57.09-1.25.39-1.73.75-1.45,1.1-2.58,3.45-3.05,6.36-.18,1.1-.3,2.63-.3,3.8,0,1.38.16,3.14.39,4.36.05.27.08.51.06.53-.02.02-.23.19-.47.38-.82.65-1.76,1.66-2.4,2.58-1.24,1.76-2.04,3.76-2.38,5.92-.13.85-.17,2.58-.06,3.44.23,1.97.82,3.64,1.84,5.16l.33.49-.1.16c-.68,1.14-1.26,2.8-1.53,4.38-.21,1.26-.24,1.59-.24,3.28s.02,2.03.22,3.21c.24,1.4.73,2.89,1.27,3.88.18.32.62.99.67,1.03.02,0-.03.17-.12.36-.63,1.37-1.16,3.2-1.39,4.74-.16,1.06-.18,1.4-.18,2.51,0,1.42.08,2.11.38,3.24l.04.17h3.74l-.12-.23c-.75-1.4-.82-3.99-.17-6.57.3-1.2.63-2.07,1.26-3.28l.38-.73v-.45c0-.42,0-.47-.14-.74-.1-.21-.24-.39-.49-.63-.42-.41-.73-.84-.97-1.37-1.07-2.33-1.28-5.79-.53-8.74.31-1.23.83-2.33,1.38-2.92.37-.41.56-.87.56-1.34s-.17-.9-.57-1.32c-1.13-1.2-1.82-2.67-2.07-4.38-.35-2.43.29-5.08,1.74-7.18,1.43-2.06,3.43-3.38,5.67-3.73.5-.08,1.44-.07,1.96.03.57.1.93.07,1.3-.1.45-.21.68-.48.95-1.09.24-.55.42-.84.91-1.46.59-.74,1.16-1.24,2.08-1.85,1.05-.68,2.24-1.18,3.42-1.42.43-.09.63-.1,1.44-.1s1.01.01,1.44.1c1.74.35,3.47,1.25,4.85,2.53.3.27,1.01,1.16,1.23,1.52.09.14.24.45.34.68.27.61.49.88.95,1.09.35.17.72.21,1.27.11.87-.15,1.54-.14,2.39.04,2.9.58,5.42,2.97,6.53,6.17.97,2.8.7,5.74-.75,7.98-.24.38-.49.68-.84,1.06-.76.82-.76,1.83,0,2.67,1.25,1.37,2.03,4.72,1.79,7.69-.16,1.95-.66,3.7-1.35,4.69-.12.17-.38.47-.57.65-.25.24-.39.42-.49.63-.14.27-.14.32-.14.74v.45l.38.73c.63,1.21.96,2.08,1.26,3.28.64,2.55.58,5.09-.15,6.53-.06.12-.11.24-.11.25s.83.02,1.85.02h1.85l.05-.19c.03-.1.07-.25.09-.34.05-.19.14-.76.22-1.3.07-.55.07-2.57,0-3.18-.28-2.22-.75-3.97-1.51-5.64-.08-.19-.14-.35-.12-.36.02-.01.14-.19.27-.38.95-1.44,1.54-3.25,1.83-5.64.08-.66.08-3.49,0-4.12-.21-1.63-.46-2.74-.88-3.86-.17-.47-.64-1.45-.83-1.77l-.1-.16.33-.49c1.02-1.53,1.61-3.19,1.84-5.16.1-.86.07-2.58-.06-3.44-.34-2.17-1.14-4.16-2.38-5.92-.65-.92-1.58-1.93-2.4-2.58-.24-.19-.45-.37-.47-.38-.02-.02,0-.26.06-.53.53-2.75.51-6.19-.04-8.87-.48-2.34-1.35-4.2-2.48-5.27-.9-.85-1.81-1.22-2.91-1.15-2.52.15-4.55,3.05-5.36,7.62-.13.74-.24,1.6-.24,1.84,0,.09-.02.17-.04.17s-.19-.09-.38-.2c-1.95-1.15-4.11-1.77-6.22-1.77s-4.27.62-6.22,1.77c-.18.11-.35.2-.38.2s-.04-.07-.04-.17c0-.24-.12-1.13-.24-1.84C15.38,3.52,13.71.81,11.49.12c-.31-.09-1.17-.15-1.48-.1ZM10.75,3.57c.63.5,1.33,1.92,1.73,3.51.07.29.15.62.17.74.02.12.07.38.1.59.17.92.25,1.92.26,3.14v1.2s-.3.44-.3.44l-.3.45h-.7c-.82,0-1.64.1-2.42.31-.28.07-.55.14-.6.15-.08.02-.1,0-.14-.37-.26-1.94-.24-4.09.04-5.88.31-1.99,1.05-3.8,1.76-4.33.17-.13.2-.12.4.03ZM35.62,3.54c.43.32.91,1.16,1.26,2.25.71,2.16.91,5.13.54,7.96-.05.36-.06.38-.14.37-.05-.01-.32-.08-.6-.15-.78-.21-1.6-.31-2.42-.31h-.7l-.3-.45-.3-.44v-1.2c.01-1.69.17-3.01.55-4.48.4-1.58,1.1-3,1.72-3.5.2-.16.23-.16.4-.03Z"/>
      <path class="cls-3" d="M22.31,25.49c-.95.09-1.2.13-1.66.22-.74.15-1.72.49-2.41.83-2.38,1.16-4.02,3.11-4.52,5.35-.1.44-.11.59-.11,1.34s.01.9.11,1.33c.67,2.94,3.37,5.1,6.87,5.5.76.08,4.04.08,4.8,0,2.81-.32,5.23-1.84,6.31-3.98.29-.57.43-.94.56-1.52.1-.42.11-.58.11-1.33s-.01-.9-.11-1.34c-.73-3.26-3.9-5.83-7.78-6.32-.51-.06-1.83-.11-2.16-.08ZM23.94,27.86c1.3.14,2.6.6,3.65,1.3.56.37,1.36,1.16,1.7,1.68.42.64.66,1.29.77,2.08.05.36.02.64-.11,1.22-.21.87-.84,1.78-1.7,2.42-.4.29-1.23.72-1.74.88-.97.31-1.6.37-3.86.35-1.47-.01-1.74-.03-2.16-.1-1.44-.27-2.59-.85-3.42-1.72-.67-.71-.98-1.35-1.14-2.39-.07-.48.07-1.29.35-1.96.34-.82,1.23-1.85,2.12-2.44,1.02-.68,2.36-1.16,3.6-1.3.48-.05,1.48-.05,1.96,0Z"/>
      <path class="cls-3" d="M21.32,31.05c-.33.18-.56.63-.49.97.08.36.4.73.89,1.03.27.16.28.18.3.34,0,.1-.03.37-.07.62-.05.24-.09.49-.09.56,0,.19.18.49.36.64.16.13.19.14.65.15.41.01.5,0,.67-.07.43-.21.54-.59.38-1.33-.13-.62-.1-.71.22-.9.34-.2.71-.55.82-.79.21-.46.02-.98-.44-1.22-.11-.06-.25-.08-.46-.08-.32,0-.52.07-.9.31l-.21.14-.14-.08c-.55-.33-.65-.37-.99-.36-.24,0-.37.02-.49.08Z"/>
      <path class="cls-3" d="M10.73,25.98c-.77.24-1.35.81-1.64,1.62-.14.38-.21.99-.15,1.32.14.78.79,1.49,1.51,1.69.92.24,1.6.08,2.21-.52.35-.34.55-.65.74-1.13.14-.34.15-.41.15-.89v-.52s-.18-.38-.18-.38c-.29-.59-.82-1.03-1.43-1.2-.34-.09-.9-.08-1.2.02Z"/>
      <path class="cls-3" d="M34.02,25.97c-.6.16-1.13.61-1.41,1.19l-.18.38v.52c0,.49.01.55.15.89.19.49.38.79.74,1.13.61.6,1.29.76,2.21.52.53-.14,1.06-.58,1.31-1.1.22-.44.27-.76.2-1.26-.16-1.15-.83-1.98-1.83-2.27-.29-.09-.86-.09-1.18,0Z"/>
      <g class="cls-6">
        <rect class="cls-3" x="-9.62" y="-5.2" width="191.37" height="65.96"/>
      </g>
    </g>
    <g>
      <path class="cls-3" d="M70.2,39.79c-.4,0-1.38-.08-2.95-.25-.14,3.28-.21,8.67-.21,16.17,0,1.24-.43,2.31-1.3,3.2s-1.97,1.34-3.3,1.34-2.44-.45-3.32-1.34-1.32-1.96-1.32-3.2v-9.81c0-3.63.23-9.01.7-16.13.45-7.24.68-12.64.7-16.2.02-6.09,1.73-9.01,5.13-8.75.8-.21,1.9-.37,3.3-.47s3.12-.16,5.13-.16c4.59,0,8.91,1.49,12.94,4.46,4.48,3.33,6.71,7.38,6.71,12.16,0,6-2.38,10.77-7.14,14.31-4.22,3.12-9.24,4.68-15.08,4.68ZM71.96,13.25c-.75,0-1.41,0-1.99.02s-1.06.04-1.46.09c0,1.1-.01,2.75-.04,4.96-.05,2.6-.27,6.66-.67,12.16,1.2.19,1.99.28,2.39.28,3.66,0,6.69-.87,9.1-2.6,2.58-1.85,3.87-4.3,3.87-7.35,0-1.99-1.21-3.76-3.62-5.31-2.32-1.5-4.85-2.25-7.59-2.25Z"/>
      <path class="cls-3" d="M115.33,61.02c-5.6,0-10.18-1.34-13.74-4.01-3.94-2.95-5.91-7.11-5.91-12.48,0-5.93,1.56-10.94,4.68-15.04,3.47-4.55,8.14-6.82,14.03-6.82,4.08,0,7.46.66,10.16,1.97,3.54,1.73,5.31,4.43,5.31,8.08,0,2.58-1.44,4.86-4.32,6.85-1.31.91-3.95,2.25-7.91,4.01l-11.85,5.24c1.12,1.22,2.48,2.13,4.08,2.74s3.42.91,5.48.91c3.14,0,5.8-.64,7.98-1.93,1.95-1.15,3.5-1.72,4.68-1.72,2.44,0,3.66,1.18,3.66,3.55,0,2.67-1.96,4.85-5.87,6.54-3.28,1.41-6.76,2.11-10.44,2.11ZM114.38,31.18c-2.18,0-4.04.73-5.59,2.18s-2.79,3.63-3.73,6.54c2.65-1.15,5.28-2.28,7.91-3.41,3.16-1.43,5.68-2.75,7.56-3.97-1.57-.89-3.62-1.34-6.15-1.34Z"/>
      <path class="cls-3" d="M163.6,24.08c.3-7.99.67-13.51,1.09-16.56.4-2.77,1.92-4.15,4.57-4.15,1.38,0,2.5.45,3.34,1.35.84.9,1.27,2,1.27,3.3,0,3.43-.26,8.54-.79,15.33-.53,6.8-.79,11.9-.79,15.34,0,8.38.27,13.98.81,16.83.07.38.11.72.11,1.03,0,1.3-.47,2.37-1.41,3.21s-2.03,1.26-3.27,1.26c-1.73,0-3.02-.77-3.87-2.32-1.59.96-3.25,1.59-4.96,1.88s-3.48.44-5.31.44c-5.25,0-9.61-1.68-13.08-5.03-3.54-3.42-5.31-7.78-5.31-13.08,0-6.3,1.78-11.39,5.34-15.27s8.21-5.82,13.96-5.82c1.76,0,3.33.19,4.71.56s2.58.94,3.59,1.69ZM162.89,35.15c-.77-1.48-1.78-2.58-3.02-3.3s-2.72-1.09-4.43-1.09c-3.47,0-6.07,1-7.8,3.01s-2.6,5.01-2.6,9.02c0,2.53.94,4.7,2.81,6.5s4.05,2.71,6.54,2.71c1.8,0,3.18-.21,4.11-.63.63-.28,1.71-1.03,3.23-2.25.4-.33.79-.69,1.16-1.09-.05-1.12-.05-5.41,0-12.87Z"/>
      <path class="cls-3" d="M191.15,42.92c0,1.34.04,3.48.12,6.43.08,2.95.12,5.1.12,6.43s-.46,2.48-1.37,3.36-2.07,1.32-3.48,1.32-2.57-.44-3.48-1.32-1.37-2-1.37-3.36-.04-3.48-.12-6.43-.12-5.1-.12-6.43c0-2.09.12-4.7.35-7.84.23-3.14.35-5.75.35-7.84,0-1.36.46-2.48,1.37-3.36s2.07-1.32,3.48-1.32,2.57.44,3.48,1.32,1.37,2,1.37,3.36c0,2.09-.12,4.7-.35,7.84s-.35,5.75-.35,7.84ZM188.17,17.16c-1.5,0-2.8-.5-3.9-1.51s-1.65-2.24-1.65-3.69.55-2.68,1.65-3.69,2.4-1.51,3.9-1.51,2.79.5,3.88,1.51,1.63,2.24,1.63,3.69-.54,2.68-1.63,3.69-2.38,1.51-3.88,1.51Z"/>
      <path class="cls-3" d="M230.66,61.34c-1.08,0-2.79-1.04-5.13-3.13-2.16,1.03-4.05,1.81-5.69,2.34s-3.03.79-4.18.79c-5.65,0-9.88-1.51-12.71-4.53s-4.24-7.55-4.24-13.57c0-5.65,2.09-10.48,6.26-14.5,4.17-4.02,9.16-6.03,14.97-6.03,2.23,0,4.8.63,7.73,1.88,3.54,1.51,5.31,3.26,5.31,5.26,0,.83-.27,1.56-.81,2.19-.23.93-.42,2.1-.54,3.5-.13,1.41-.19,3.05-.19,4.93,0,4.43.32,7.62.95,9.57.07.21.61,1.42,1.62,3.62.91,2,1.37,3.13,1.37,3.41,0,1.23-.47,2.26-1.42,3.06-.95.81-2.04,1.22-3.29,1.22ZM221.95,37.61c0-.75.05-1.61.16-2.58s.26-2.06.47-3.25c-.47-.23-.88-.4-1.25-.51s-.67-.16-.93-.16c-3.19,0-5.98,1.25-8.37,3.74-2.39,2.5-3.59,5.38-3.59,8.66s.56,5.5,1.69,7.08,2.81,2.37,5.06,2.37c1.45,0,2.83-.24,4.13-.72s2.53-1.19,3.67-2.13c-.7-5.58-1.05-9.75-1.05-12.51Z"/>
    </g>
  </g>
</svg>